<svg xmlns:xlink="http://www.w3.org/1999/xlink" xmlns="http://www.w3.org/2000/svg" width="24" height="24" viewBox="0 0 24 24" fill="none"><path d="M12.193 6.22a5.78 5.78 0 100 11.56 5.78 5.78 0 000-11.56zm0 9.534a3.755 3.755 0 110-7.51 3.755 3.755 0 010 7.51zM18.202 7.355a1.348 1.348 0 100-2.695 1.348 1.348 0 000 2.695z" fill="#FFFFFF"></path><path d="M22.86 4.638a5.756 5.756 0 00-3.29-3.29 8.258 8.258 0 00-2.733-.525C15.633.77 15.252.755 12.199.755c-3.052 0-3.443 0-4.637.068a8.192 8.192 0 00-2.73.525 5.75 5.75 0 00-3.291 3.29 8.231 8.231 0 00-.524 2.732c-.054 1.203-.07 1.584-.07 4.638 0 3.052 0 3.441.07 4.637.019.935.195 1.858.524 2.734a5.762 5.762 0 003.292 3.29 8.23 8.23 0 002.731.563c1.204.052 1.585.068 4.638.068 3.052 0 3.444 0 4.637-.068a8.27 8.27 0 002.733-.524 5.765 5.765 0 003.291-3.291 8.231 8.231 0 00.524-2.733c.053-1.202.07-1.584.07-4.637 0-3.054 0-3.442-.07-4.638a8.227 8.227 0 00-.527-2.771zm-1.522 11.915a6.303 6.303 0 01-.389 2.11 3.732 3.732 0 01-2.14 2.139 6.23 6.23 0 01-2.087.388c-1.188.055-1.523.07-4.568.07-3.047 0-3.358 0-4.568-.07a6.202 6.202 0 01-2.087-.388 3.732 3.732 0 01-2.148-2.14 6.35 6.35 0 01-.39-2.085c-.053-1.188-.065-1.523-.065-4.568 0-3.046 0-3.357.066-4.569.008-.72.14-1.433.389-2.108a3.733 3.733 0 012.148-2.14 6.263 6.263 0 012.087-.39c1.188-.053 1.522-.068 4.568-.068 3.046 0 3.359 0 4.568.069a6.2 6.2 0 012.087.389 3.739 3.739 0 012.14 2.14c.246.668.377 1.374.389 2.086.054 1.189.067 1.522.067 4.569 0 3.045 0 3.372-.053 4.567h-.014v-.001z" fill="#FFFFFF"></path></svg>